<svg width="466" height="370" viewBox="0 0 466 370" fill="none" xmlns="http://www.w3.org/2000/svg">
<path fill-rule="evenodd" clip-rule="evenodd" d="M215.169 125.956C214.858 125.125 214.532 124.298 214.192 123.476C210.358 114.219 204.737 105.808 197.652 98.7228C190.567 91.6376 182.156 86.0174 172.899 82.183C163.642 78.3486 153.72 76.375 143.7 76.375H140.05C119.814 76.375 100.407 84.4137 86.0978 98.7228C71.7887 113.032 63.75 132.439 63.75 152.675V277.375L88.75 252.375V152.675C88.75 139.069 94.1548 126.021 103.775 116.4C113.396 106.78 126.444 101.375 140.05 101.375H143.7C157.306 101.375 170.354 106.78 179.975 116.4C188.128 124.554 193.253 135.168 194.627 146.498L215.169 125.956ZM89.1994 294.352C90.6791 305.456 95.7664 315.841 103.775 323.85C113.396 333.47 126.444 338.875 140.05 338.875H143.7C157.306 338.875 170.354 333.47 179.975 323.85C189.595 314.229 195 301.181 195 287.575V188.551L220 163.551V287.575C220 307.811 211.961 327.218 197.652 341.527C183.343 355.836 163.936 363.875 143.7 363.875H140.05C119.814 363.875 100.407 355.836 86.0978 341.527C78.4289 333.858 72.5611 324.725 68.7666 314.785L89.1994 294.352Z" fill="white"/>
<path fill-rule="evenodd" clip-rule="evenodd" d="M391.419 125.956C391.108 125.125 390.782 124.298 390.442 123.476C386.608 114.219 380.987 105.808 373.902 98.7228C366.817 91.6376 358.406 86.0174 349.149 82.183C339.892 78.3486 329.97 76.375 319.95 76.375H316.3C296.064 76.375 276.657 84.4137 262.348 98.7228C248.039 113.032 240 132.439 240 152.675V277.375L265 252.375V152.675C265 139.069 270.405 126.021 280.025 116.4C289.646 106.78 302.694 101.375 316.3 101.375H319.95C333.556 101.375 346.604 106.78 356.225 116.4C364.378 124.554 369.503 135.168 370.877 146.498L391.419 125.956ZM265.449 294.352C266.929 305.456 272.016 315.841 280.025 323.85C289.646 333.47 302.694 338.875 316.3 338.875H319.95C333.556 338.875 346.604 333.47 356.225 323.85C365.845 314.229 371.25 301.181 371.25 287.575V188.551L396.25 163.551V287.575C396.25 307.811 388.211 327.218 373.902 341.527C359.593 355.836 340.186 363.875 319.95 363.875H316.3C296.064 363.875 276.657 355.836 262.348 341.527C254.679 333.858 248.811 324.725 245.017 314.785L265.449 294.352Z" fill="white"/>
<circle cx="436" cy="36.125" r="30" fill="#FF4D00"/>
</svg>
